<svg xmlns="http://www.w3.org/2000/svg" viewBox="0 0 256 256" width="256" height="256" role="img" aria-label="阿一古数模">
  <title>阿一古数模</title>
  <defs>
    <linearGradient id="lgBg" x1="0" y1="0" x2="0.85" y2="1"><stop offset="0%" stop-color="#4468bd"/><stop offset="52%" stop-color="#2b4179"/><stop offset="100%" stop-color="#1a2545"/></linearGradient>
    <linearGradient id="lgHorse" x1="0" y1="0" x2="0.3" y2="1"><stop offset="0%" stop-color="#ffffff"/><stop offset="100%" stop-color="#dbe4ff"/></linearGradient>
    <linearGradient id="lgGloss" x1="0" y1="0" x2="0" y2="1">
      <stop offset="0%" stop-color="#ffffff" stop-opacity="0.14"/>
      <stop offset="100%" stop-color="#ffffff" stop-opacity="0"/>
    </linearGradient>
    <clipPath id="clip"><rect width="256" height="256" rx="58"/></clipPath>
  </defs>
  <g clip-path="url(#clip)">
    <rect width="256" height="256" fill="url(#lgBg)"/>
    <rect width="256" height="149" fill="url(#lgGloss)"/>
    <path d="M153 74 L172 34 L184 70 Z" fill="#c3d0f5"/>
    <path d="M150 32 C147 44 143 53 139 61 C124 68 108 80 92 96 C76 112 60 128 50 142 C44 151 42 160 46 167 C51 174 60 178 71 180 C84 182 94 186 99 193 C103 201 104 209 104 218 L178 218 C183 199 186 178 185 158 C184 134 178 110 169 89 C165 80 161 71 158 62 C160 52 158 41 150 32 Z" fill="url(#lgHorse)"/>
    <path d="M157 62 C166 84 175 116 179 148 C182 174 180 198 175 218 L159 218 C165 197 167 174 164 150 C160 118 151 90 143 71 Z" fill="#3a569c" opacity="0.55"/>
    <circle cx="112" cy="101" r="7.5" fill="#1a2545"/>
    <ellipse cx="57" cy="154" rx="5" ry="7" transform="rotate(-28 57 154)" fill="#1a2545" opacity="0.85"/>
  </g>
</svg>